:FULLY-SPECIFIED
:FORCE-ALL-JOINTS-BE-3DOF
:DEGREES
781
root 1.61125 16.3833 18.608 -19.3954 72.7119 334.803
lfemur -35.4829 10.5046 -13.1921
ltibia 49.8836 0 0
lfoot -22.3764 20.7252 0
ltoes 14.3582 0 0
rfemur -15.2816 -21.8418 21.1681
rtibia 51.8144 0 0
rfoot -17.0816 -30.8404 0
rtoes -26.2709 0 0
lowerback 1.21089 4.66693 -0.603316
upperback -0.770524 6.21223 -3.68122
thorax -1.12223 3.11545 -3.56391
lowerneck -5.40893 -6.49459 -0.546091
upperneck -1.92911 -8.5818 4.76793
head 0.545153 -4.21987 1.37086
lclavicle 4.69721e-14 -8.31727e-14 0
lhumerus -55.8387 -11.6978 94.9947
lradius 70.6085 0 0
lwrist 13.8463 0 0
lhand -22.3261 -4.55791 0
lfingers 7.12502 0 0
lthumb 4.0939 25.383 0
rclavicle 4.69721e-14 -8.31727e-14 0
rhumerus -31.3459 48.4508 -113.001
rradius 79.9411 0 0
rwrist 5.68497 0 0
rhand -23.6877 -20.1649 0
rfingers 7.12502 0 0
rthumb 2.77874 -770.115 0
782
root 1.56195 16.4251 18.7269 -6.92467 71.2113 347.239
lfemur -34.7552 8.09737 -11.9151
ltibia 49.3533 0 0
lfoot -21.4598 18.982 0
ltoes 12.5952 0 0
rfemur -15.3768 -20.4284 20.8538
rtibia 50.9662 0 0
rfoot -17.3185 -29.4731 0
rtoes -26.7349 0 0
lowerback 1.10842 4.65497 -0.379799
upperback -0.72826 6.19675 -3.56839
thorax -1.01115 3.10542 -3.55875
lowerneck -5.45462 -6.31936 -0.392726
upperneck -1.88461 -8.36009 4.59432
head 0.544855 -4.11239 1.29564
lclavicle 4.27387e-14 -7.95139e-14 0
lhumerus -55.9593 -11.6075 94.9847
lradius 70.5457 0 0
lwrist 14.154 0 0
lhand -22.4439 -4.19366 0
lfingers 7.12502 0 0
lthumb 3.98011 25.7489 0
rclavicle 4.27387e-14 -7.95139e-14 0
rhumerus -31.8993 47.9666 -113.615
rradius 79.8441 0 0
rwrist 5.3452 0 0
rhand -24.2923 -20.4379 0
rfingers 7.12502 0 0
rthumb 2.19506 -770.406 0
783
root 1.55684 16.4294 18.7424 -5.82621 70.9569 348.321
lfemur -34.7158 7.81851 -11.7815
ltibia 49.3316 0 0
lfoot -21.3795 18.7303 0
ltoes 12.4422 0 0
rfemur -15.3938 -20.2596 20.8263
rtibia 50.8585 0 0
rfoot -17.3733 -29.3108 0
rtoes -26.7815 0 0
lowerback 1.08309 4.65394 -0.348727
upperback -0.727623 6.19543 -3.55266
thorax -0.994852 3.1045 -3.55727
lowerneck -5.46041 -6.2964 -0.374346
upperneck -1.87465 -8.33111 4.572
head 0.546307 -4.09826 1.28617
lclavicle 4.22356e-14 -7.88394e-14 0
lhumerus -55.9742 -11.589 94.9792
lradius 70.5409 0 0
lwrist 14.208 0 0
lhand -22.4324 -4.14253 0
lfingers 7.12502 0 0
lthumb 3.99121 25.7998 0
rclavicle 4.22356e-14 -7.88394e-14 0
rhumerus -31.9741 47.9142 -113.682
rradius 79.8155 0 0
rwrist 5.30939 0 0
rhand -24.3378 -20.4794 0
rfingers 7.12502 0 0
rthumb 2.15111 -770.449 0
784
root 1.54443 16.4404 18.7849 -3.25555 70.1293 350.829
lfemur -34.6616 7.03635 -11.4312
ltibia 49.3348 0 0
lfoot -21.1971 17.9608 0
ltoes 12.0683 0 0
rfemur -15.4636 -19.7949 20.7614
rtibia 50.5809 0 0
rfoot -17.5313 -28.8347 0
rtoes -26.8663 0 0
lowerback 0.994174 4.65199 -0.260305
upperback -0.7318 6.19276 -3.50643
thorax -0.945357 3.10249 -3.55041
lowerneck -5.47682 -6.23238 -0.324093
upperneck -1.83945 -8.25056 4.50832
head 0.552816 -4.05892 1.25938
lclavicle 4.07726e-14 -7.65903e-14 0
lhumerus -56.0147 -11.5281 94.957
lradius 70.5337 0 0
lwrist 14.3757 0 0
lhand -22.3838 -3.99504 0
lfingers 7.12502 0 0
lthumb 4.0382 25.9464 0
rclavicle 4.07726e-14 -7.65903e-14 0
rhumerus -32.1896 47.7774 -113.859
rradius 79.7246 0 0
rwrist 5.21288 0 0
rhand -24.4349 -20.6015 0
rfingers 7.12502 0 0
rthumb 2.05745 -770.574 0
